<svg xmlns="http://www.w3.org/2000/svg" viewBox="0 0 781.48 305.14"><defs><style>.cls-1{fill:#82bd39;}.cls-2{fill:#fff;}</style></defs><title>资源 2</title><g id="图层_2" data-name="图层 2"><g id="图层_1-2" data-name="图层 1"><polygon class="cls-1" points="115.24 138.18 90.49 103.54 90.49 3.72 115.24 14.38 115.24 138.18"/><path class="cls-1" d="M155.31,38.81h24.74a0,0,0,0,1,0,0v171a24.74,24.74,0,0,1-24.74,24.74h0a0,0,0,0,1,0,0V38.81a0,0,0,0,1,0,0Z"/><polygon class="cls-1" points="180.05 63.99 90.49 25.44 90.49 0 180.05 38.81 180.05 63.99"/><path class="cls-1" d="M24.74,60.81h0a0,0,0,0,1,0,0v204.8a0,0,0,0,1,0,0H0a0,0,0,0,1,0,0V85.55A24.74,24.74,0,0,1,24.74,60.81Z"/><polygon class="cls-1" points="90.49 305.14 0 266.37 0 241.1 90.49 280.04 90.49 305.14"/><polygon class="cls-1" points="90.49 305.14 65.75 294.32 65.75 203.18 90.49 237.54 90.49 305.14"/><polygon class="cls-1" points="20.7 98.92 24.74 60.81 110.96 179.13 157.16 206.87 155.31 234.6 91.04 195.33 20.7 98.92"/><path class="cls-2" d="M367.63,217.51H351.5l-71-92v92H260.34V87.63h15.32l71.8,92v-92h20.17Z"/><path class="cls-2" d="M508,217.51H400.71V87.63h21V199h66.15V87.63H508Z"/><path class="cls-2" d="M644.34,217.51H542.69V87.63h21.78V199h79.87Z"/><path class="cls-2" d="M781.48,217.51H671V199h90.36V161.85H671V87.63H780.68v18.55H691.13v36.31h90.35Z"/></g></g></svg>