<svg id="图层_1" data-name="图层 1" xmlns="http://www.w3.org/2000/svg" viewBox="0 0 414.31 165.77"><defs><style>.cls-1{fill:#7aac40;}.cls-2{fill:#fff;}</style></defs><title>未标题-1</title><path class="cls-1" d="M-442.64,175.17V230L-429,248.85V195.4l22.14,9.66v81.66l-24.5-14.92L-479,205.5h-2.45a11.23,11.23,0,0,0-11.22,11.24V319.22L-456.31,335v0l13.67,5.91V304l-13.67-18.77v35.65L-479,311V230l36.62,50.91,35.51,22h2.45a11.23,11.23,0,0,0,11.22-11.25V196.92Z" transform="translate(492.63 -175.17)"/><polygon class="cls-2" points="179.74 96.67 140.92 49.72 132.63 49.72 132.63 116.03 143.53 116.03 143.53 69.08 181.92 116.03 190.65 116.03 190.65 49.72 179.74 49.72 179.74 96.67"/><polygon class="cls-2" points="254.28 106.57 218.51 106.57 218.51 49.73 207.16 49.73 207.16 116.04 265.19 116.04 265.19 49.73 254.28 49.73 254.28 106.57"/><polygon class="cls-2" points="294.19 49.72 281.75 49.72 281.75 116.03 339.78 116.03 339.78 106.55 294.19 106.55 294.19 49.72"/><polygon class="cls-2" points="366.88 77.74 366.88 59.2 413.89 59.2 413.89 49.73 356.29 49.73 356.29 87.62 403.73 87.62 403.73 106.57 356.29 106.57 356.29 116.04 414.31 116.04 414.31 77.74 366.88 77.74"/><polygon class="cls-1" points="273.24 5.46 245.46 5.46 245.46 11.38 255.83 11.38 255.83 40.42 262.89 40.42 262.89 11.38 273.24 11.38 273.24 5.46"/><path class="cls-1" d="M-199.93,193.42a11.27,11.27,0,0,0-8.92-3.73,10.83,10.83,0,0,0-8.32,3.57q-3.29,3.56-3.29,9.86a14.52,14.52,0,0,0,2.5,8.73q3.18,4.31,9.78,4.31a11.94,11.94,0,0,0,7-1.92,11,11,0,0,0,4.07-5.59l-6.68-1.12a5.42,5.42,0,0,1-1.62,2.77,4.13,4.13,0,0,1-2.65.85A5.07,5.07,0,0,1-212,209.5a6.82,6.82,0,0,1-1.62-4.64h16.78Q-196.66,197.15-199.93,193.42Zm-13.54,7.34a6.17,6.17,0,0,1,1.4-4.34,4.66,4.66,0,0,1,3.63-1.6,4.59,4.59,0,0,1,3.48,1.51,6.5,6.5,0,0,1,1.5,4.43Z" transform="translate(492.63 -175.17)"/><path class="cls-1" d="M-172.15,202.69c-1.41-1.18-3.91-2.17-7.47-3s-5.66-1.44-6.26-1.89a1.45,1.45,0,0,1-.67-1.21,1.58,1.58,0,0,1,.76-1.36,7.3,7.3,0,0,1,3.79-.74,5.56,5.56,0,0,1,3.23.79,3.88,3.88,0,0,1,1.54,2.26l6.32-1.17a8.63,8.63,0,0,0-3.48-5c-1.69-1.13-4.26-1.7-7.73-1.7-3.64,0-6.32.75-8.06,2.24a7,7,0,0,0-2.59,5.54,6.53,6.53,0,0,0,3,5.7q2.18,1.47,10.28,3.26a5.49,5.49,0,0,1,2.24.88,1.78,1.78,0,0,1,.48,1.27,2.14,2.14,0,0,1-.89,1.79,6.65,6.65,0,0,1-3.91.95,5.91,5.91,0,0,1-3.67-1,5,5,0,0,1-1.74-3l-6.73,1a9.73,9.73,0,0,0,4,5.7,14.11,14.11,0,0,0,8.19,2.1q5.7,0,8.61-2.5a7.66,7.66,0,0,0,2.91-6A6.18,6.18,0,0,0-172.15,202.69Z" transform="translate(492.63 -175.17)"/><path class="cls-1" d="M-155.29,210.61a1.91,1.91,0,0,1-1.13-.34,1.47,1.47,0,0,1-.6-.84,25.24,25.24,0,0,1-.13-3.62v-10.2h4.58v-5.34h-4.58v-9l-6.72,3.91v5h-3.08v5.34h3.08v11a33.16,33.16,0,0,0,.21,4.72,6.28,6.28,0,0,0,.94,2.61,4.81,4.81,0,0,0,2.14,1.57,8.31,8.31,0,0,0,3.26.61,13.32,13.32,0,0,0,5.3-1l-.58-5.2A8.64,8.64,0,0,1-155.29,210.61Z" transform="translate(492.63 -175.17)"/><path class="cls-1" d="M-126.57,192.53a6.72,6.72,0,0,0-2.78-2,10.06,10.06,0,0,0-4.05-.8,10.14,10.14,0,0,0-8.35,4.3v-3.72H-148v25.32h6.7V204.12a22,22,0,0,1,.51-5.82,4.89,4.89,0,0,1,1.9-2.53,5.4,5.4,0,0,1,3.12-1,4,4,0,0,1,2.33.67,3.69,3.69,0,0,1,1.39,1.87,19.79,19.79,0,0,1,.43,5.31v12.92h6.7V199.85a20.77,20.77,0,0,0-.37-4.51A7.33,7.33,0,0,0-126.57,192.53Z" transform="translate(492.63 -175.17)"/><path class="cls-1" d="M-99.52,193.42a11.25,11.25,0,0,0-8.91-3.73,10.85,10.85,0,0,0-8.33,3.57q-3.28,3.56-3.29,9.86a14.52,14.52,0,0,0,2.51,8.73q3.17,4.31,9.77,4.31a12,12,0,0,0,7-1.92,11,11,0,0,0,4.06-5.59l-6.68-1.12A5.28,5.28,0,0,1-105,210.3a4.1,4.1,0,0,1-2.64.85,5.1,5.1,0,0,1-3.87-1.65,6.82,6.82,0,0,1-1.62-4.64h16.79Q-96.25,197.15-99.52,193.42Zm-13.54,7.34a6.12,6.12,0,0,1,1.41-4.34,4.63,4.63,0,0,1,3.62-1.6,4.59,4.59,0,0,1,3.48,1.51,6.45,6.45,0,0,1,1.51,4.43Z" transform="translate(492.63 -175.17)"/><path class="cls-1" d="M-79.34,210a8.74,8.74,0,0,1-2.7.65,1.91,1.91,0,0,1-1.13-.34,1.47,1.47,0,0,1-.6-.84,27,27,0,0,1-.13-3.62v-10.2h4.58v-5.34H-83.9v-9l-6.72,3.91v5H-93.7v5.34h3.08v11a33.16,33.16,0,0,0,.21,4.72,6.15,6.15,0,0,0,1,2.61,4.72,4.72,0,0,0,2.13,1.57,8.32,8.32,0,0,0,3.27.61,13.27,13.27,0,0,0,5.29-1Z" transform="translate(492.63 -175.17)"/></svg>